<?xml version="1.0" encoding="UTF-8" standalone="no"?>
<svg width="1480px" height="256px" viewBox="0 0 1480 256" version="1.1" xmlns="http://www.w3.org/2000/svg" xmlns:xlink="http://www.w3.org/1999/xlink">
    <!-- Generator: Sketch 39 (31667) - http://www.bohemiancoding.com/sketch -->
    <title>logo_white</title>
    <desc>Created with Sketch.</desc>
    <defs></defs>
    <g id="Page-1" stroke="none" stroke-width="1" fill="none" fill-rule="evenodd">
        <g id="logo_white" fill="#FFFFFF">
            <path d="M93.84,66.7 C97.7244639,69.4600138 99.6666667,72.884424 99.6666667,76.9733333 C99.6666667,81.8800245 98.3889017,85.6110983 95.8333333,88.1666667 C93.277765,90.722235 90.1600184,92 86.48,92 C84.6399908,92 81.8800184,91.3866728 78.2,90.16 C73.9066452,88.7288817 70.5333456,88.0133333 68.08,88.0133333 C61.7421905,88.0133333 55.5578079,90.2110891 49.5266667,94.6066667 C43.4955254,99.0022442 38.5889078,105.033295 34.8066667,112.7 C31.0244255,120.366705 29.1333333,128.902175 29.1333333,138.306667 L29.1333333,212.213333 C29.1333333,216.302243 27.7533471,219.777763 24.9933333,222.64 C22.2333195,225.502237 18.7066881,226.933333 14.4133333,226.933333 C10.1199785,226.933333 6.64445773,225.553347 3.98666667,222.793333 C1.3288756,220.03332 0,216.506688 0,212.213333 L0,80.96 C0,76.8710907 1.3799862,73.3955699 4.14,70.5333333 C6.9000138,67.6710968 10.324424,66.24 14.4133333,66.24 C18.7066881,66.24 22.2333195,67.6710968 24.9933333,70.5333333 C27.7533471,73.3955699 29.1333333,76.8710907 29.1333333,80.96 L29.1333333,96.6 C33.6311336,86.5821721 40.3777328,78.4555867 49.3733333,72.22 C58.3689339,65.9844133 68.5910539,62.7644455 80.04,62.56 C85.3555821,62.56 89.9555361,63.9399862 93.84,66.7 L93.84,66.7 Z M256.373333,149.806667 C253.511097,152.362235 250.137797,153.64 246.253333,153.64 L138.306667,153.64 C139.737785,168.564519 145.411062,180.524399 155.326667,189.52 C165.242272,198.515601 177.355484,203.013333 191.666667,203.013333 C201.480049,203.013333 209.453303,201.582237 215.586667,198.72 C221.720031,195.857763 227.137754,192.1778 231.84,187.68 C234.906682,185.839991 237.871097,184.92 240.733333,184.92 C244.208906,184.92 247.12221,186.146654 249.473333,188.6 C251.824456,191.053346 253,193.915539 253,197.186667 C253,201.480021 250.955576,205.364427 246.866667,208.84 C240.937748,214.768919 233.066716,219.777757 223.253333,223.866667 C213.439951,227.955576 203.422273,230 193.2,230 C176.639917,230 162.073396,226.524479 149.5,219.573333 C136.926604,212.622187 127.21559,202.911173 120.366667,190.44 C113.517744,177.968827 110.093333,163.862301 110.093333,148.12 C110.093333,130.946581 113.619965,115.868954 120.673333,102.886667 C127.726702,89.9043795 137.028831,79.9378125 148.58,72.9866667 C160.131169,66.0355208 172.551045,62.56 185.84,62.56 C198.92451,62.56 211.191054,65.9332996 222.64,72.68 C234.088946,79.4267004 243.288854,88.7288296 250.24,100.586667 C257.191146,112.444504 260.768888,125.73326 260.973333,140.453333 C260.768888,144.133352 259.23557,147.251098 256.373333,149.806667 L256.373333,149.806667 Z M156.093333,99.2066667 C147.711069,105.646699 142.191124,115.613266 139.533333,129.106667 L230,129.106667 L230,126.653333 C228.977773,115.817724 224.122266,106.924479 215.433333,99.9733333 C206.744401,93.0221875 196.880055,89.5466667 185.84,89.5466667 C174.391054,89.5466667 164.475597,92.7666345 156.093333,99.2066667 L156.093333,99.2066667 Z M435.62,4.14 C438.380014,6.9000138 439.76,10.4266452 439.76,14.72 L439.76,212.213333 C439.76,216.302243 438.380014,219.777763 435.62,222.64 C432.859986,225.502237 429.333355,226.933333 425.04,226.933333 C420.746645,226.933333 417.271124,225.553347 414.613333,222.793333 C411.955542,220.03332 410.626667,216.506688 410.626667,212.213333 L410.626667,203.626667 C405.51553,210.986703 398.308935,217.222197 389.006667,222.333333 C379.704398,227.44447 369.737831,230 359.106667,230 C345.204375,230 332.631167,226.422258 321.386667,219.266667 C310.142166,212.111075 301.248922,202.144508 294.706667,189.366667 C288.164412,176.588825 284.893333,162.226746 284.893333,146.28 C284.893333,130.333254 288.113301,115.971175 294.553333,103.193333 C300.993366,90.4154917 309.835499,80.4489247 321.08,73.2933333 C332.324501,66.137742 344.693266,62.56 358.186667,62.56 C369.022276,62.56 379.039954,64.8088664 388.24,69.3066667 C397.440046,73.8044669 404.902194,79.6310753 410.626667,86.7866667 L410.626667,14.72 C410.626667,10.4266452 411.955542,6.9000138 414.613333,4.14 C417.271124,1.3799862 420.746645,0 425.04,0 C429.333355,0 432.859986,1.3799862 435.62,4.14 L435.62,4.14 Z M388.086667,195.653333 C395.548926,190.746642 401.375535,184.000043 405.566667,175.413333 C409.757799,166.826624 411.853333,157.11561 411.853333,146.28 C411.853333,135.648836 409.757799,125.988932 405.566667,117.3 C401.375535,108.611068 395.548926,101.813358 388.086667,96.9066667 C380.624407,91.9999755 372.088937,89.5466667 362.48,89.5466667 C352.871063,89.5466667 344.335593,91.9999755 336.873333,96.9066667 C329.411074,101.813358 323.584465,108.611068 319.393333,117.3 C315.202201,125.988932 313.106667,135.648836 313.106667,146.28 C313.106667,157.11561 315.202201,166.826624 319.393333,175.413333 C323.584465,184.000043 329.411074,190.746642 336.873333,195.653333 C344.335593,200.560025 352.871063,203.013333 362.48,203.013333 C372.088937,203.013333 380.624407,200.560025 388.086667,195.653333 L388.086667,195.653333 Z M623.913333,4.14 C626.673347,6.9000138 628.053333,10.4266452 628.053333,14.72 L628.053333,212.213333 C628.053333,216.302243 626.673347,219.777763 623.913333,222.64 C621.15332,225.502237 617.626688,226.933333 613.333333,226.933333 C609.039979,226.933333 605.564458,225.553347 602.906667,222.793333 C600.248876,220.03332 598.92,216.506688 598.92,212.213333 L598.92,203.626667 C593.808863,210.986703 586.602269,217.222197 577.3,222.333333 C567.997731,227.44447 558.031164,230 547.4,230 C533.497708,230 520.924501,226.422258 509.68,219.266667 C498.435499,212.111075 489.542255,202.144508 483,189.366667 C476.457745,176.588825 473.186667,162.226746 473.186667,146.28 C473.186667,130.333254 476.406634,115.971175 482.846667,103.193333 C489.286699,90.4154917 498.128833,80.4489247 509.373333,73.2933333 C520.617834,66.137742 532.986599,62.56 546.48,62.56 C557.31561,62.56 567.333287,64.8088664 576.533333,69.3066667 C585.733379,73.8044669 593.195527,79.6310753 598.92,86.7866667 L598.92,14.72 C598.92,10.4266452 600.248876,6.9000138 602.906667,4.14 C605.564458,1.3799862 609.039979,0 613.333333,0 C617.626688,0 621.15332,1.3799862 623.913333,4.14 L623.913333,4.14 Z M576.38,195.653333 C583.84226,190.746642 589.668868,184.000043 593.86,175.413333 C598.051132,166.826624 600.146667,157.11561 600.146667,146.28 C600.146667,135.648836 598.051132,125.988932 593.86,117.3 C589.668868,108.611068 583.84226,101.813358 576.38,96.9066667 C568.91774,91.9999755 560.38227,89.5466667 550.773333,89.5466667 C541.164396,89.5466667 532.628926,91.9999755 525.166667,96.9066667 C517.704407,101.813358 511.877799,108.611068 507.686667,117.3 C503.495535,125.988932 501.4,135.648836 501.4,146.28 C501.4,157.11561 503.495535,166.826624 507.686667,175.413333 C511.877799,184.000043 517.704407,190.746642 525.166667,195.653333 C532.628926,200.560025 541.164396,203.013333 550.773333,203.013333 C560.38227,203.013333 568.91774,200.560025 576.38,195.653333 L576.38,195.653333 Z M694.753333,222.64 C691.99332,225.502237 688.466688,226.933333 684.173333,226.933333 C680.084424,226.933333 676.660014,225.502237 673.9,222.64 C671.139986,219.777763 669.76,216.302243 669.76,212.213333 L669.76,79.4266667 C669.76,75.3377573 671.139986,71.8622365 673.9,69 C676.660014,66.1377635 680.084424,64.7066667 684.173333,64.7066667 C688.466688,64.7066667 691.99332,66.1377635 694.753333,69 C697.513347,71.8622365 698.893333,75.3377573 698.893333,79.4266667 L698.893333,212.213333 C698.893333,216.302243 697.513347,219.777763 694.753333,222.64 L694.753333,222.64 Z M671.446667,41.2466667 C668.891098,39.0999893 667.613333,35.6755791 667.613333,30.9733333 L667.613333,26.0666667 C667.613333,21.1599755 668.99332,17.6844547 671.753333,15.64 C674.513347,13.5955453 678.755527,12.5733333 684.48,12.5733333 C690.204473,12.5733333 694.344432,13.6466559 696.9,15.7933333 C699.455568,17.9400107 700.733333,21.3644209 700.733333,26.0666667 L700.733333,30.9733333 C700.733333,35.8800245 699.404458,39.3555453 696.746667,41.4 C694.088876,43.4444547 689.897806,44.4666667 684.173333,44.4666667 C678.244415,44.4666667 674.002235,43.3933441 671.446667,41.2466667 L671.446667,41.2466667 Z M784.453333,94.76 L784.453333,186.146667 C784.453333,196.36894 789.053287,201.48 798.253333,201.48 C799.684452,201.48 801.626654,201.122226 804.08,200.406667 C806.533346,199.691108 808.475548,199.333333 809.906667,199.333333 C812.564458,199.333333 814.813324,200.457767 816.653333,202.706667 C818.493343,204.955567 819.413333,207.81776 819.413333,211.293333 C819.413333,215.586688 816.960025,219.266651 812.053333,222.333333 C807.146642,225.400015 801.626697,226.933333 795.493333,226.933333 C788.746633,226.933333 782.56225,226.217785 776.94,224.786667 C771.31775,223.355548 766.308911,219.726696 761.913333,213.9 C757.517756,208.073304 755.32,199.23117 755.32,187.373333 L755.32,94.76 L737.533333,94.76 C733.648869,94.76 730.428902,93.482235 727.873333,90.9266667 C725.317765,88.3710983 724.04,85.1511305 724.04,81.2666667 C724.04,77.3822028 725.317765,74.2133456 727.873333,71.76 C730.428902,69.3066544 733.648869,68.08 737.533333,68.08 L755.32,68.08 L755.32,42.32 C755.32,38.2310907 756.699986,34.7555699 759.46,31.8933333 C762.220014,29.0310968 765.746645,27.6 770.04,27.6 C774.128909,27.6 777.55332,29.0310968 780.313333,31.8933333 C783.073347,34.7555699 784.453333,38.2310907 784.453333,42.32 L784.453333,68.08 L809.906667,68.08 C813.791131,68.08 817.011098,69.357765 819.566667,71.9133333 C822.122235,74.4689017 823.4,77.6888695 823.4,81.5733333 C823.4,85.4577972 822.122235,88.6266544 819.566667,91.08 C817.011098,93.5333456 813.791131,94.76 809.906667,94.76 L784.453333,94.76 Z M910.27852,47.4775856 C858.231542,77.6774153 861.219116,126.867543 863.011116,145.068054 C930.235627,65.4357132 1030.78916,69.2975005 1030.78916,69.2975005 C1030.78916,69.2975005 888.251627,118.190777 846.387457,216.236054 C843.081244,223.975969 861.899967,234.041671 866.194776,224.891032 C879.01384,197.624309 896.876648,177.174266 896.876648,177.174266 C923.231031,186.981245 968.820818,198.474011 1001.13401,175.736309 C1044.05486,145.531032 1039.66746,78.5734153 1100.93861,45.971543 C1115.25009,38.3596281 980.839201,6.53120258 910.27852,47.4775856 Z M1136.42667,226.093333 C1135.19999,227.320006 1133.7689,227.933333 1132.13333,227.933333 C1130.29332,227.933333 1128.81112,227.320006 1127.68667,226.093333 C1126.56222,224.866661 1126,223.435564 1126,221.8 L1126,7.13333333 C1126,5.4977696 1126.61333,4.0666728 1127.84,2.84 C1129.06667,1.6133272 1130.49777,1 1132.13333,1 C1133.97334,1 1135.45555,1.6133272 1136.58,2.84 C1137.70445,4.0666728 1138.26667,5.4977696 1138.26667,7.13333333 L1138.26667,221.8 C1138.26667,223.435564 1137.65334,224.866661 1136.42667,226.093333 Z M1201.13333,226.093333 C1199.90666,227.320006 1198.47556,227.933333 1196.84,227.933333 C1194.99999,227.933333 1193.51778,227.320006 1192.39333,226.093333 C1191.26888,224.866661 1190.70667,223.435564 1190.70667,221.8 L1190.70667,76.1333333 C1190.70667,74.4977696 1191.31999,73.0666728 1192.54667,71.84 C1193.77334,70.6133272 1195.20444,70 1196.84,70 C1198.68001,70 1200.16222,70.6133272 1201.28667,71.84 C1202.41112,73.0666728 1202.97333,74.4977696 1202.97333,76.1333333 L1202.97333,221.8 C1202.97333,223.435564 1202.36001,224.866661 1201.13333,226.093333 Z M1189.02,46.3866667 C1187.07777,44.5466575 1186.10667,42.1955699 1186.10667,39.3333333 L1186.10667,36.88 C1186.10667,34.0177635 1187.12888,31.6666759 1189.17333,29.8266667 C1191.21779,27.9866575 1193.87554,27.0666667 1197.14667,27.0666667 C1200.0089,27.0666667 1202.4111,27.9866575 1204.35333,29.8266667 C1206.29557,31.6666759 1207.26667,34.0177635 1207.26667,36.88 L1207.26667,39.3333333 C1207.26667,42.1955699 1206.29557,44.5466575 1204.35333,46.3866667 C1202.4111,48.2266759 1199.90668,49.1466667 1196.84,49.1466667 C1193.56887,49.1466667 1190.96223,48.2266759 1189.02,46.3866667 Z M1314.90667,75.52 C1316.13334,76.7466728 1316.74667,78.0755484 1316.74667,79.5066667 C1316.74667,81.1422304 1316.18445,82.5222166 1315.06,83.6466667 C1313.93555,84.7711167 1312.55556,85.3333333 1310.92,85.3333333 L1277.18667,85.3333333 L1277.18667,194.506667 C1277.18667,203.502267 1278.7711,209.482207 1281.94,212.446667 C1285.1089,215.411126 1289.14664,216.893333 1294.05333,216.893333 C1294.87112,216.893333 1296.04666,216.688891 1297.58,216.28 C1299.11334,215.871109 1300.39111,215.666667 1301.41333,215.666667 C1302.84445,215.666667 1304.07111,216.228883 1305.09333,217.353333 C1306.11556,218.477783 1306.62667,219.755548 1306.62667,221.186667 C1306.62667,223.026676 1305.40001,224.611104 1302.94667,225.94 C1300.49332,227.268896 1297.63113,227.933333 1294.36,227.933333 C1289.24886,227.933333 1284.95557,227.575559 1281.48,226.86 C1278.00443,226.144441 1274.37557,223.384468 1270.59333,218.58 C1266.81109,213.775532 1264.92,205.95561 1264.92,195.12 L1264.92,85.3333333 L1239.77333,85.3333333 C1238.34222,85.3333333 1237.01334,84.7200061 1235.78667,83.4933333 C1234.55999,82.2666605 1233.94667,80.9377849 1233.94667,79.5066667 C1233.94667,77.8711029 1234.50888,76.4911167 1235.63333,75.3666667 C1236.75778,74.2422166 1238.13777,73.68 1239.77333,73.68 L1264.92,73.68 L1264.92,34.7333333 C1264.92,33.0977696 1265.53333,31.6666728 1266.76,30.44 C1267.98667,29.2133272 1269.41777,28.6 1271.05333,28.6 C1272.89334,28.6 1274.37555,29.2133272 1275.5,30.44 C1276.62445,31.6666728 1277.18667,33.0977696 1277.18667,34.7333333 L1277.18667,73.68 L1310.92,73.68 C1312.35112,73.68 1313.67999,74.2933272 1314.90667,75.52 Z M1474.06667,192.82 C1475.08889,193.94445 1475.6,195.222215 1475.6,196.653333 C1475.6,198.084452 1475.19112,199.311106 1474.37333,200.333333 C1467.62663,209.328934 1459.24449,216.68886 1449.22667,222.413333 C1439.20884,228.137806 1428.47561,231 1417.02667,231 C1401.69326,231 1388.09784,227.728922 1376.24,221.186667 C1364.38216,214.644412 1355.13114,205.342283 1348.48667,193.28 C1341.84219,181.217717 1338.52,167.213413 1338.52,151.266667 C1338.52,134.911029 1341.73997,120.548951 1348.18,108.18 C1354.62003,95.8110493 1363.1555,86.3555883 1373.78667,79.8133333 C1384.41783,73.2710784 1395.76438,70 1407.82667,70 C1419.88895,70 1431.08217,72.6066406 1441.40667,77.82 C1451.73116,83.0333594 1460.16441,90.8532812 1466.70667,101.28 C1473.24892,111.706719 1476.72444,124.58659 1477.13333,139.92 C1477.13333,141.555564 1476.52001,143.037771 1475.29333,144.366667 C1474.06666,145.695562 1472.63556,146.36 1471,146.36 L1350.48,146.36 L1350.48,150.346667 C1350.48,163.022286 1353.03553,174.624392 1358.14667,185.153333 C1363.2578,195.682275 1370.82217,204.013303 1380.84,210.146667 C1390.85783,216.280031 1402.91993,219.346667 1417.02667,219.346667 C1426.84005,219.346667 1436.09107,216.944468 1444.78,212.14 C1453.46893,207.335532 1460.26664,201.25337 1465.17333,193.893333 C1466.60445,192.053324 1468.34221,191.133333 1470.38667,191.133333 C1471.81778,191.133333 1473.04444,191.69555 1474.06667,192.82 Z M1384.67333,88.2466667 C1376.80218,92.2333533 1369.85114,98.1621829 1363.82,106.033333 C1357.78886,113.904484 1353.75112,123.462166 1351.70667,134.706667 L1464.56,134.706667 L1464.56,131.946667 C1463.53777,121.519948 1460.21558,112.575593 1454.59333,105.113333 C1448.97108,97.6510738 1442.02004,91.9777972 1433.74,88.0933333 C1425.45996,84.2088695 1416.82227,82.2666667 1407.82667,82.2666667 C1400.26218,82.2666667 1392.54448,84.2599801 1384.67333,88.2466667 Z" id="Combined-Shape"></path>
        </g>
    </g>
</svg>