<?xml version="1.0" encoding="UTF-8" standalone="no"?>
<svg width="256px" height="256px" viewBox="0 0 256 256" version="1.1" xmlns="http://www.w3.org/2000/svg" xmlns:xlink="http://www.w3.org/1999/xlink" style="background: #E2E2E2;">
    <!-- Generator: Sketch 39 (31667) - http://www.bohemiancoding.com/sketch -->
    <title>thumbnail_link</title>
    <desc>Created with Sketch.</desc>
    <defs></defs>
    <g id="Page-1" stroke="none" stroke-width="1" fill="none" fill-rule="evenodd">
        <g id="thumbnail_link" fill="#FFFFFF">
            <path d="M159.263158,96.7368421 C156.736842,94.2105263 152.947368,94.2105263 150.421053,96.7368421 L97.3684211,149.789474 C94.8421053,152.315789 94.8421053,156.105263 97.3684211,158.631579 C99.8947368,161.157895 103.684211,161.157895 106.210526,158.631579 L159.263158,105.578947 C161.789474,103.052632 161.789474,99.2631579 159.263158,96.7368421 Z M106.210526,194 L128.315789,171.894737 C137.157895,163.052632 139.684211,149.789474 135.263158,138.421053 L124.526316,149.157895 C124.526316,154.210526 123.263158,159.263158 118.842105,163.684211 L96.7368421,185.789474 C89.1578947,193.368421 77.1578947,193.368421 70.2105263,185.789474 C62.6315789,178.210526 62.6315789,166.210526 70.2105263,159.263158 L92.3157895,137.157895 C96.1052632,133.368421 101.789474,131.473684 106.842105,131.473684 L117.578947,120.736842 C106.210526,116.315789 92.9473684,118.210526 84.1052632,127.684211 L62,149.789474 C50,161.789474 50,182 62,194 C74,206.631579 94.2105263,206.631579 106.210526,194 Z M137.157895,92.3157895 L159.263158,70.2105263 C166.842105,62.6315789 178.842105,62.6315789 185.789474,70.2105263 C192.736842,77.7894737 193.368421,89.7894737 185.789474,96.7368421 L163.684211,118.842105 C159.894737,122.631579 154.210526,124.526316 149.157895,124.526316 L138.421053,135.263158 C149.789474,139.684211 163.052632,137.157895 171.894737,128.315789 L194,106.210526 C206,94.2105263 206,74 194,62 C182,50 161.789474,50 149.789474,62 L128.315789,83.4736842 C119.473684,92.3157895 116.947368,105.578947 121.368421,116.947368 L132.105263,106.210526 C131.473684,101.157895 133.368421,96.1052632 137.157895,92.3157895 Z" id="Combined-Shape"></path>
        </g>
    </g>
</svg>