<?xml version="1.0" encoding="UTF-8" standalone="no"?>
<svg width="256px" height="256px" viewBox="0 0 256 256" version="1.1" xmlns="http://www.w3.org/2000/svg" xmlns:xlink="http://www.w3.org/1999/xlink" style="background: #E2E2E2;">
    <!-- Generator: Sketch 39 (31667) - http://www.bohemiancoding.com/sketch -->
    <title>thumbnail_text</title>
    <desc>Created with Sketch.</desc>
    <defs></defs>
    <g id="Page-1" stroke="none" stroke-width="1" fill="none" fill-rule="evenodd">
        <g id="thumbnail_text" fill="#FFFFFF">
            <path d="M184.25,53 L71.75,53 C61.3953125,53 53,61.3953125 53,71.75 L53,146.75 C53,157.104688 61.3953125,165.5 71.75,165.5 L99.875,165.5 L137.375,203 L137.375,165.5 L184.25,165.5 C194.604688,165.5 203,157.104688 203,146.75 L203,71.75 C203,61.3953125 194.604688,53 184.25,53 L184.25,53 Z M193.625,146.75 C193.625,151.922656 189.417969,156.125 184.25,156.125 L128,156.125 L128,180.36875 L103.757422,156.125 L71.75,156.125 C66.5820312,156.125 62.375,151.922656 62.375,146.75 L62.375,71.75 C62.375,66.5773437 66.5820312,62.375 71.75,62.375 L184.25,62.375 C189.417969,62.375 193.625,66.5773437 193.625,71.75 L193.625,146.75 Z M81.125,90.5 L174.875,90.5 L174.875,81.125 L81.125,81.125 L81.125,90.5 Z M81.125,109.25 L174.875,109.25 L174.875,99.875 L81.125,99.875 L81.125,109.25 Z M81.125,128 L137.375,128 L137.375,118.625 L81.125,118.625 L81.125,128 Z" id="Combined-Shape"></path>
        </g>
    </g>
</svg>