<?xml version="1.0" encoding="UTF-8" standalone="no"?>
<svg width="256px" height="256px" viewBox="0 0 256 256" version="1.1" xmlns="http://www.w3.org/2000/svg" xmlns:xlink="http://www.w3.org/1999/xlink" style="background: #E2E2E2;">
    <!-- Generator: Sketch 39 (31667) - http://www.bohemiancoding.com/sketch -->
    <title>thumbnail_nsfw</title>
    <desc>Created with Sketch.</desc>
    <defs></defs>
    <g id="Page-1" stroke="none" stroke-width="1" fill="none" fill-rule="evenodd">
        <g id="thumbnail_nsfw" fill="#FFFFFF">
            <path d="M75.2949219,163.070312 L66.2128906,163.070312 L66.2128906,102.865234 L48,109.554688 L48,101.351562 L73.8789062,91.6347656 L75.2949219,91.6347656 L75.2949219,163.070312 Z M144.875,110.53125 C144.875,114.079445 143.939137,117.236965 142.067383,120.003906 C140.195629,122.770847 137.664729,124.935539 134.474609,126.498047 C138.185565,128.093107 141.123362,130.420558 143.288086,133.480469 C145.45281,136.54038 146.535156,140.007142 146.535156,143.880859 C146.535156,150.033234 144.459982,154.932273 140.30957,158.578125 C136.159159,162.223977 130.698602,164.046875 123.927734,164.046875 C117.091763,164.046875 111.614929,162.215839 107.49707,158.553711 C103.379211,154.891583 101.320312,150.000682 101.320312,143.880859 C101.320312,140.039694 102.370107,136.572932 104.469727,133.480469 C106.569346,130.388005 109.474591,128.044279 113.185547,126.449219 C110.027979,124.886711 107.53777,122.722019 105.714844,119.955078 C103.891918,117.188137 102.980469,114.046893 102.980469,110.53125 C102.980469,104.541637 104.901022,99.7890801 108.742188,96.2734375 C112.583353,92.7577949 117.645151,91 123.927734,91 C130.177766,91 135.231426,92.7577949 139.088867,96.2734375 C142.946308,99.7890801 144.875,104.541637 144.875,110.53125 L144.875,110.53125 Z M137.501953,143.685547 C137.501953,139.714173 136.240573,136.475273 133.717773,133.96875 C131.194974,131.462227 127.899109,130.208984 123.830078,130.208984 C119.761047,130.208984 116.497734,131.445951 114.040039,133.919922 C111.582344,136.393893 110.353516,139.649068 110.353516,143.685547 C110.353516,147.722025 111.549793,150.895822 113.942383,153.207031 C116.334973,155.518241 119.66339,156.673828 123.927734,156.673828 C128.159526,156.673828 131.479806,155.510103 133.888672,153.182617 C136.297538,150.855132 137.501953,147.689473 137.501953,143.685547 L137.501953,143.685547 Z M123.927734,98.421875 C120.37954,98.421875 117.506847,99.5204968 115.30957,101.717773 C113.112294,103.91505 112.013672,106.901674 112.013672,110.677734 C112.013672,114.291034 113.096018,117.212554 115.260742,119.442383 C117.425467,121.672212 120.314435,122.787109 123.927734,122.787109 C127.541034,122.787109 130.430002,121.672212 132.594727,119.442383 C134.759451,117.212554 135.841797,114.291034 135.841797,110.677734 C135.841797,107.064435 134.718761,104.118501 132.472656,101.839844 C130.226551,99.5611865 127.378272,98.421875 123.927734,98.421875 L123.927734,98.421875 Z M184.71875,124.935547 L204.542969,124.935547 L204.542969,133.480469 L184.71875,133.480469 L184.71875,155.941406 L175.636719,155.941406 L175.636719,133.480469 L155.8125,133.480469 L155.8125,124.935547 L175.636719,124.935547 L175.636719,104.183594 L184.71875,104.183594 L184.71875,124.935547 Z" id="18+"></path>
        </g>
    </g>
</svg>