<?xml version="1.0" encoding="UTF-8" standalone="no"?>
<svg width="256px" height="256px" viewBox="0 0 256 256" version="1.1" xmlns="http://www.w3.org/2000/svg" xmlns:xlink="http://www.w3.org/1999/xlink" style="background: #E2E2E2;">
    <!-- Generator: Sketch 39 (31667) - http://www.bohemiancoding.com/sketch -->
    <title>thumbnail_image</title>
    <desc>Created with Sketch.</desc>
    <defs></defs>
    <g id="Page-1" stroke="none" stroke-width="1" fill="none" fill-rule="evenodd">
        <g id="thumbnail_image" fill="#FFFFFF">
            <g id="Icon-Image" transform="translate(55.000000, 72.000000)">
                <path d="M134.081633,112.489796 L13.1632653,112.489796 C6.12244898,112.489796 0.306122449,106.673469 0.306122449,99.6326531 L0.306122449,13.3061224 C0.306122449,6.26530612 6.12244898,0.448979592 13.1632653,0.448979592 L134.081633,0.448979592 C141.122449,0.448979592 146.938776,6.26530612 146.938776,13.3061224 L146.938776,99.6326531 C146.938776,106.673469 141.122449,112.489796 134.081633,112.489796 L134.081633,112.489796 L134.081633,112.489796 Z M12.8571429,8.71428571 C10.4081633,8.71428571 8.57142857,10.5510204 8.57142857,13 L8.57142857,99.3265306 C8.57142857,101.77551 10.4081633,103.612245 12.8571429,103.612245 L133.77551,103.612245 C136.22449,103.612245 138.061224,101.77551 138.061224,99.3265306 L138.061224,13 C138.061224,10.5510204 136.22449,8.71428571 133.77551,8.71428571 L12.8571429,8.71428571 L12.8571429,8.71428571 L12.8571429,8.71428571 Z" id="Fill-12"></path>
                <path d="M95.2040816,51.5714286 C85.7142857,51.5714286 78.3673469,43.9183673 78.3673469,34.7346939 C78.3673469,25.5510204 86.0204082,17.8979592 95.2040816,17.8979592 C104.387755,17.8979592 112.040816,25.5510204 112.040816,34.7346939 C112.040816,43.9183673 104.387755,51.5714286 95.2040816,51.5714286 L95.2040816,51.5714286 L95.2040816,51.5714286 Z M95.2040816,25.5510204 C90.3061224,25.5510204 86.3265306,29.5306122 86.3265306,34.4285714 C86.3265306,39.3265306 90.3061224,43.3061224 95.2040816,43.3061224 C100.102041,43.3061224 104.081633,39.3265306 104.081633,34.4285714 C104.081633,29.5306122 100.102041,25.5510204 95.2040816,25.5510204 L95.2040816,25.5510204 L95.2040816,25.5510204 Z" id="Fill-13"></path>
                <polyline id="Fill-14" points="118.163265 110.959184 47.4489796 44.5306122 7.04081633 81.877551 1.53061224 76.0612245 47.4489796 33.5102041 123.673469 105.142857 118.163265 110.959184"></polyline>
                <polyline id="Fill-15" points="140.204082 88.9183673 116.632653 69.9387755 97.0408163 86.1632653 91.8367347 79.7346939 116.632653 59.5306122 145.102041 82.7959184 140.204082 88.9183673"></polyline>
            </g>
        </g>
    </g>
</svg>